<?xml version="1.0" encoding="UTF-8" standalone="no"?>
<!DOCTYPE svg PUBLIC "-//W3C//DTD SVG 1.1//EN" "http://www.w3.org/Graphics/SVG/1.1/DTD/svg11.dtd">
<!-- Generato da Microsoft Visio, esportazione SVG HistoryState.svg Pagina 1 -->
<svg xmlns="http://www.w3.org/2000/svg" xmlns:xlink="http://www.w3.org/1999/xlink" xmlns:ev="http://www.w3.org/2001/xml-events"
		xmlns:v="http://schemas.microsoft.com/visio/2003/SVGExtensions/" width="3.00254in" height="3.01517in"
		viewBox="0 0 216.183 217.092" xml:space="preserve" color-interpolation-filters="sRGB" class="st9">
	<v:documentProperties v:langID="1033" v:viewMarkup="false"/>

	<style type="text/css">
	<![CDATA[
		.st1 {fill:#ffffff;stroke:#000000;stroke-linecap:round;stroke-linejoin:round;stroke-width:0.75;visibility:hidden}
		.st2 {fill:#ffffff;stroke:#000000;stroke-linecap:round;stroke-linejoin:round;stroke-width:0.75}
		.st3 {fill:#ffffff}
		.st4 {stroke:#000000;stroke-linecap:round;stroke-linejoin:round;stroke-width:0.75}
		.st5 {fill:#000000;font-family:Calibri;font-size:1.00001em;font-weight:bold}
		.st6 {fill:#000000;font-family:Calibri;font-size:1.00001em}
		.st7 {marker-end:url(#mrkr3-43);stroke:#000000;stroke-linecap:round;stroke-linejoin:round;stroke-width:0.75}
		.st8 {fill:#000000;fill-opacity:1;stroke:#000000;stroke-opacity:1;stroke-width:0.29411764705882}
		.st9 {fill:none;fill-rule:evenodd;font-size:12px;overflow:visible;stroke-linecap:square;stroke-miterlimit:3}
	]]>
	</style>

	<defs id="Markers">
		<g id="lend3">
			<path d="M 2 1 L 0 0 L 2 -1 " style="stroke-linecap:round;stroke-linejoin:round;fill:none"/>
		</g>
		<marker id="mrkr3-43" class="st8" v:arrowType="3" v:arrowSize="1" orient="auto" markerUnits="strokeWidth"
				overflow="visible">
			<use xlink:href="#lend3" transform="scale(-3.4,-3.4) "/>
		</marker>
	</defs>
	<g v:mID="0" v:index="1" v:groupContext="foregroundPage">
		<title>Pagina 1</title>
		<v:pageProperties v:drawingScale="0.0393701" v:pageScale="0.0393701" v:drawingUnits="24" v:shadowOffsetX="8.50394"
				v:shadowOffsetY="-8.50394"/>
		<v:layer v:name="Connettore" v:index="0"/>
		<g id="group87-1" transform="translate(83.997,-0.375)" v:mID="87" v:groupContext="group">
			<v:userDefs>
				<v:ud v:nameU="visVersion" v:prompt="" v:val="VT0(15):26"/>
				<v:ud v:nameU="msvStructureType" v:prompt="" v:val="VT4(Container)"/>
				<v:ud v:nameU="msvSDContainerMargin" v:prompt="" v:val="VT0(0.11811023622047):24"/>
				<v:ud v:nameU="msvSDContainerResize" v:prompt="" v:val="VT0(1):26"/>
				<v:ud v:nameU="msvSDHeadingStyle" v:prompt="" v:val="VT0(1):26"/>
				<v:ud v:nameU="msvSDHeadingStyleCount" v:prompt="" v:val="VT0(1):26"/>
			</v:userDefs>
			<title>Stato composito</title>
			<g id="shape87-2" v:mID="87" v:groupContext="groupContent">
				<rect x="0" y="0.75" width="131.811" height="216.342" rx="25.5118" ry="25.5118" class="st1"/>
			</g>
			<g id="group88-4" transform="translate(0,-193.939)" v:mID="88" v:groupContext="group">
				<v:userDefs>
					<v:ud v:nameU="UmlRole" v:prompt="" v:val="VT4(Title)"/>
					<v:ud v:nameU="msvStructureType" v:prompt="" v:val="VT4(Heading)"/>
					<v:ud v:nameU="msvSDContainerHeadingEdge" v:prompt="" v:val="VT4(Bottom)"/>
				</v:userDefs>
				<title>Foglio.88</title>
				<desc>Backing Up</desc>
				<g id="shape89-5" v:mID="89" v:groupContext="shape" transform="translate(0,193.939)">
					<title>Foglio.89</title>
					<v:userDefs>
						<v:ud v:nameU="UmlRole" v:prompt="" v:val="VT4(Body)"/>
					</v:userDefs>
					<path d="M25.51 217.09 L106.3 217.09 A25.5118 25.5118 -180 0 0 131.81 191.58 L131.81 48.67 A25.5118 25.5118 -180
								 0 0 106.3 23.15 L25.51 23.15 A25.5118 25.5118 -180 0 0 0 48.67 L0 191.58 A25.5118 25.5118 -180 0
								 0 25.51 217.09 Z" class="st2"/>
				</g>
				<g id="shape88-7" v:mID="88" v:groupContext="groupContent">
					<v:textBlock v:margins="rect(4,4,4,4)" v:tabSpace="42.5197"/>
					<v:textRect cx="65.9055" cy="205.891" width="131.82" height="22.4037"/>
					<path d="M65.91 217.09 L11.2 217.09 A11.2019 11.2019 0 0 1 -0 205.89 L0 205.89 A11.2019 11.2019 0 0 1 11.2 194.69
								 L65.91 194.69 L65.91 217.09 L120.61 217.09 A11.2019 11.2019 -180 0 0 131.81 205.89 L131.81 205.89
								 A11.2019 11.2019 -180 0 0 120.61 194.69 L65.91 194.69 L65.91 217.09 Z" class="st3"/>
					<path d="M65.91 217.09 L11.2 217.09 A11.2019 11.2019 0 0 1 -0 205.89 L0 205.89 A11.2019 11.2019 0 0 1 11.2 194.69
								 L65.91 194.69M65.91 217.09 L120.61 217.09 A11.2019 11.2019 -180 0 0 131.81 205.89 L131.81 205.89
								 A11.2019 11.2019 -180 0 0 120.61 194.69 L65.91 194.69" class="st4"/>
					<text x="38.16" y="209.49" class="st5" v:langID="1033"><v:paragraph v:horizAlign="1"/><v:tabList/>Backing Up</text>				</g>
			</g>
		</g>
		<g id="group90-11" transform="translate(136.438,-141.006)" v:mID="90" v:groupContext="group">
			<v:userDefs>
				<v:ud v:nameU="visVersion" v:prompt="" v:val="VT0(15):26"/>
			</v:userDefs>
			<title>Stato</title>
			<g id="shape90-12" v:mID="90" v:groupContext="groupContent">
				<rect x="0" y="172.289" width="70.8661" height="44.8037" rx="8.50394" ry="8.50394" class="st2"/>
			</g>
			<g id="shape91-14" v:mID="91" v:groupContext="shape" transform="translate(0,-22.4)">
				<title>Foglio.91</title>
				<desc>Collecting</desc>
				<v:userDefs>
					<v:ud v:nameU="UmlRole" v:prompt="" v:val="VT4(Title)"/>
				</v:userDefs>
				<v:textBlock v:margins="rect(4,4,4,4)" v:tabSpace="42.5197"/>
				<v:textRect cx="35.4331" cy="205.891" width="70.87" height="22.4037"/>
				<path d="M8.5 217.09 L62.36 217.09 A8.50394 8.50394 -180 0 0 70.87 208.59 L70.87 203.19 A8.50394 8.50394 -180 0 0
							 62.36 194.69 L8.5 194.69 A8.50394 8.50394 -180 0 0 -0 203.19 L0 208.59 A8.50394 8.50394 -180 0 0 8.5
							 217.09 Z" class="st2"/>
				<text x="10.93" y="209.49" class="st5" v:langID="1033"><v:paragraph v:horizAlign="1"/><v:tabList/>Collecting</text>			</g>
			<g id="shape92-17" v:mID="92" v:groupContext="shape">
				<title>Foglio.92</title>
				<v:userDefs>
					<v:ud v:nameU="UmlRole" v:prompt="" v:val="VT4(Body)"/>
				</v:userDefs>
				<path d="M8.5 217.09 L62.36 217.09 A8.50394 8.50394 -180 0 0 70.87 208.59 L70.87 203.2 A8.50394 8.50394 -180 0 0
							 62.36 194.69 L8.5 194.69 A8.50394 8.50394 -180 0 0 -0 203.2 L0 208.59 A8.50394 8.50394 -180 0 0 8.5
							 217.09 Z" class="st2"/>
			</g>
		</g>
		<g id="group93-19" transform="translate(136.438,-74.9425)" v:mID="93" v:groupContext="group">
			<v:userDefs>
				<v:ud v:nameU="visVersion" v:prompt="" v:val="VT0(15):26"/>
			</v:userDefs>
			<title>Stato.93</title>
			<g id="shape93-20" v:mID="93" v:groupContext="groupContent">
				<rect x="0" y="172.289" width="70.8661" height="44.8037" rx="8.50394" ry="8.50394" class="st2"/>
			</g>
			<g id="shape94-22" v:mID="94" v:groupContext="shape" transform="translate(0,-22.4)">
				<title>Foglio.94</title>
				<desc>Copying</desc>
				<v:userDefs>
					<v:ud v:nameU="UmlRole" v:prompt="" v:val="VT4(Title)"/>
				</v:userDefs>
				<v:textBlock v:margins="rect(4,4,4,4)" v:tabSpace="42.5197"/>
				<v:textRect cx="35.4331" cy="205.891" width="70.87" height="22.4037"/>
				<path d="M8.5 217.09 L62.36 217.09 A8.50394 8.50394 -180 0 0 70.87 208.59 L70.87 203.19 A8.50394 8.50394 -180 0 0
							 62.36 194.69 L8.5 194.69 A8.50394 8.50394 -180 0 0 -0 203.19 L0 208.59 A8.50394 8.50394 -180 0 0 8.5
							 217.09 Z" class="st2"/>
				<text x="15.43" y="209.49" class="st5" v:langID="1033"><v:paragraph v:horizAlign="1"/><v:tabList/>Copying</text>			</g>
			<g id="shape95-25" v:mID="95" v:groupContext="shape">
				<title>Foglio.95</title>
				<v:userDefs>
					<v:ud v:nameU="UmlRole" v:prompt="" v:val="VT4(Body)"/>
				</v:userDefs>
				<path d="M8.5 217.09 L62.36 217.09 A8.50394 8.50394 -180 0 0 70.87 208.59 L70.87 203.2 A8.50394 8.50394 -180 0 0
							 62.36 194.69 L8.5 194.69 A8.50394 8.50394 -180 0 0 -0 203.2 L0 208.59 A8.50394 8.50394 -180 0 0 8.5
							 217.09 Z" class="st2"/>
			</g>
		</g>
		<g id="group96-27" transform="translate(136.438,-8.87894)" v:mID="96" v:groupContext="group">
			<v:userDefs>
				<v:ud v:nameU="visVersion" v:prompt="" v:val="VT0(15):26"/>
			</v:userDefs>
			<title>Stato.96</title>
			<g id="shape96-28" v:mID="96" v:groupContext="groupContent">
				<rect x="0" y="172.289" width="70.8661" height="44.8037" rx="8.50394" ry="8.50394" class="st2"/>
			</g>
			<g id="shape97-30" v:mID="97" v:groupContext="shape" transform="translate(0,-22.4)">
				<title>Foglio.97</title>
				<desc>Cleaning Up</desc>
				<v:userDefs>
					<v:ud v:nameU="UmlRole" v:prompt="" v:val="VT4(Title)"/>
				</v:userDefs>
				<v:textBlock v:margins="rect(4,4,4,4)" v:tabSpace="42.5197"/>
				<v:textRect cx="35.4331" cy="205.891" width="70.87" height="22.4037"/>
				<path d="M8.5 217.09 L62.36 217.09 A8.50394 8.50394 -180 0 0 70.87 208.59 L70.87 203.19 A8.50394 8.50394 -180 0 0
							 62.36 194.69 L8.5 194.69 A8.50394 8.50394 -180 0 0 -0 203.19 L0 208.59 A8.50394 8.50394 -180 0 0 8.5
							 217.09 Z" class="st2"/>
				<text x="5.55" y="209.49" class="st5" v:langID="1033"><v:paragraph v:horizAlign="1"/><v:tabList/>Cleaning Up</text>			</g>
			<g id="shape98-33" v:mID="98" v:groupContext="shape">
				<title>Foglio.98</title>
				<v:userDefs>
					<v:ud v:nameU="UmlRole" v:prompt="" v:val="VT4(Body)"/>
				</v:userDefs>
				<path d="M8.5 217.09 L62.36 217.09 A8.50394 8.50394 -180 0 0 70.87 208.59 L70.87 203.2 A8.50394 8.50394 -180 0 0
							 62.36 194.69 L8.5 194.69 A8.50394 8.50394 -180 0 0 -0 203.2 L0 208.59 A8.50394 8.50394 -180 0 0 8.5
							 217.09 Z" class="st2"/>
			</g>
		</g>
		<g id="shape99-35" v:mID="99" v:groupContext="shape" transform="translate(92.501,-152.069)">
			<title>Stato iniziale</title>
			<desc>H</desc>
			<v:userDefs>
				<v:ud v:nameU="visVersion" v:prompt="" v:val="VT0(15):26"/>
			</v:userDefs>
			<v:textBlock v:margins="rect(4,4,4,4)" v:tabSpace="42.5197"/>
			<v:textRect cx="11.3386" cy="206.079" width="20.47" height="25.5118"/>
			<ellipse cx="11.3386" cy="205.754" rx="11.3386" ry="11.3386" class="st2"/>
			<text x="7.6" y="209.68" class="st6" v:langID="1033"><v:paragraph v:horizAlign="1"/><v:tabList/>H</text>		</g>
		<g id="shape100-38" v:mID="100" v:groupContext="shape" v:layerMember="0" transform="translate(164.784,-141.006)">
			<title>Connettore dinamico</title>
			<path d="M7.09 217.09 L7.09 238.35" class="st7"/>
		</g>
		<g id="shape101-44" v:mID="101" v:groupContext="shape" v:layerMember="0" transform="translate(164.784,-74.9425)">
			<title>Connettore dinamico.101</title>
			<path d="M7.09 217.09 L7.09 238.35" class="st7"/>
		</g>
		<g id="shape102-49" v:mID="102" v:groupContext="shape" v:layerMember="0" transform="translate(115.178,-156.321)">
			<title>Connettore dinamico.102</title>
			<path d="M0 210.01 L21.26 210.01" class="st7"/>
		</g>
		<g id="group103-54" transform="translate(0.375,-141.006)" v:mID="103" v:groupContext="group">
			<v:userDefs>
				<v:ud v:nameU="visVersion" v:prompt="" v:val="VT0(15):26"/>
			</v:userDefs>
			<title>Stato.103</title>
			<g id="shape103-55" v:mID="103" v:groupContext="groupContent">
				<rect x="0" y="172.289" width="70.8661" height="44.8037" rx="8.50394" ry="8.50394" class="st2"/>
			</g>
			<g id="shape104-57" v:mID="104" v:groupContext="shape" transform="translate(0,-22.4)">
				<title>Foglio.104</title>
				<desc>Command</desc>
				<v:userDefs>
					<v:ud v:nameU="UmlRole" v:prompt="" v:val="VT4(Title)"/>
				</v:userDefs>
				<v:textBlock v:margins="rect(4,4,4,4)" v:tabSpace="42.5197"/>
				<v:textRect cx="35.4331" cy="205.891" width="70.87" height="22.4037"/>
				<path d="M8.5 217.09 L62.36 217.09 A8.50394 8.50394 -180 0 0 70.87 208.59 L70.87 203.19 A8.50394 8.50394 -180 0 0
							 62.36 194.69 L8.5 194.69 A8.50394 8.50394 -180 0 0 -0 203.19 L0 208.59 A8.50394 8.50394 -180 0 0 8.5
							 217.09 Z" class="st2"/>
				<text x="9.87" y="209.49" class="st5" v:langID="1033"><v:paragraph v:horizAlign="1"/><v:tabList/>Command</text>			</g>
			<g id="shape105-60" v:mID="105" v:groupContext="shape">
				<title>Foglio.105</title>
				<v:userDefs>
					<v:ud v:nameU="UmlRole" v:prompt="" v:val="VT4(Body)"/>
				</v:userDefs>
				<path d="M8.5 217.09 L62.36 217.09 A8.50394 8.50394 -180 0 0 70.87 208.59 L70.87 203.2 A8.50394 8.50394 -180 0 0
							 62.36 194.69 L8.5 194.69 A8.50394 8.50394 -180 0 0 -0 203.2 L0 208.59 A8.50394 8.50394 -180 0 0 8.5
							 217.09 Z" class="st2"/>
			</g>
		</g>
		<g id="shape106-62" v:mID="106" v:groupContext="shape" v:layerMember="0" transform="translate(71.2411,-156.321)">
			<title>Connettore dinamico.106</title>
			<path d="M0 210.01 L21.26 210.01" class="st7"/>
		</g>
		<g id="shape107-67" v:mID="107" v:groupContext="shape" v:layerMember="0" transform="translate(136.438,-31.2808)">
			<title>Connettore dinamico.107</title>
			<path d="M0 217.09 L-100.63 217.09 L-100.63 107.37" class="st7"/>
		</g>
	</g>
</svg>
