<?xml version="1.0" encoding="UTF-8" standalone="no"?>
<!DOCTYPE svg PUBLIC "-//W3C//DTD SVG 1.1//EN" "http://www.w3.org/Graphics/SVG/1.1/DTD/svg11.dtd">
<!-- Generato da Microsoft Visio, esportazione SVG State_simple.svg Pagina 1 -->
<svg xmlns="http://www.w3.org/2000/svg" xmlns:xlink="http://www.w3.org/1999/xlink" xmlns:ev="http://www.w3.org/2001/xml-events"
		xmlns:v="http://schemas.microsoft.com/visio/2003/SVGExtensions/" width="1.05054in" height="0.63269in"
		viewBox="0 0 75.6389 45.5537" xml:space="preserve" color-interpolation-filters="sRGB" class="st3">
	<v:documentProperties v:langID="1033" v:viewMarkup="false"/>

	<style type="text/css">
	<![CDATA[
		.st1 {fill:#ffffff;stroke:#000000;stroke-linecap:round;stroke-linejoin:round;stroke-width:0.75}
		.st2 {fill:#000000;font-family:Calibri;font-size:1.00001em;font-weight:bold}
		.st3 {fill:none;fill-rule:evenodd;font-size:12px;overflow:visible;stroke-linecap:square;stroke-miterlimit:3}
	]]>
	</style>

	<g v:mID="0" v:index="1" v:groupContext="foregroundPage">
		<title>Pagina 1</title>
		<v:pageProperties v:drawingScale="1" v:pageScale="1" v:drawingUnits="19" v:shadowOffsetX="9" v:shadowOffsetY="-9"/>
		<g id="group41-1" transform="translate(0.375,-0.375)" v:mID="41" v:groupContext="group">
			<v:userDefs>
				<v:ud v:nameU="visVersion" v:prompt="" v:val="VT0(15):26"/>
			</v:userDefs>
			<title>Stato</title>
			<g id="shape41-2" v:mID="41" v:groupContext="groupContent">
				<rect x="0" y="0.75" width="74.8889" height="44.8037" rx="8.50394" ry="8.50394" class="st1"/>
			</g>
			<g id="shape42-4" v:mID="42" v:groupContext="shape" transform="translate(0,-22.4)">
				<title>Foglio.42</title>
				<desc>State</desc>
				<v:userDefs>
					<v:ud v:nameU="UmlRole" v:prompt="" v:val="VT4(Title)"/>
				</v:userDefs>
				<v:textBlock v:margins="rect(4,4,4,4)" v:tabSpace="42.5197"/>
				<v:textRect cx="37.4445" cy="34.3519" width="74.89" height="22.4037"/>
				<path d="M8.5 45.55 L66.38 45.55 A8.50394 8.50394 -180 0 0 74.89 37.05 L74.89 31.65 A8.50394 8.50394 -180 0 0 66.38
							 23.15 L8.5 23.15 A8.50394 8.50394 -180 0 0 -0 31.65 L0 37.05 A8.50394 8.50394 -180 0 0 8.5 45.55 Z"
						class="st1"/>
				<text x="24.47" y="37.95" class="st2" v:langID="1033"><v:paragraph v:horizAlign="1"/><v:tabList/>State</text>			</g>
			<g id="shape43-7" v:mID="43" v:groupContext="shape">
				<title>Foglio.43</title>
				<v:userDefs>
					<v:ud v:nameU="UmlRole" v:prompt="" v:val="VT4(Body)"/>
				</v:userDefs>
				<path d="M8.5 45.55 L66.38 45.55 A8.50394 8.50394 -180 0 0 74.89 37.05 L74.89 31.66 A8.50394 8.50394 -180 0 0 66.38
							 23.15 L8.5 23.15 A8.50394 8.50394 -180 0 0 -0 31.66 L0 37.05 A8.50394 8.50394 -180 0 0 8.5 45.55 Z"
						class="st1"/>
			</g>
		</g>
	</g>
</svg>
